<mxfile host="65bd71144e">
    <diagram id="_6_fxTTIoe9WjkEIhUAf" name="Page-1">
        <mxGraphModel dx="850" dy="734" grid="1" gridSize="10" guides="1" tooltips="1" connect="1" arrows="1" fold="1" page="1" pageScale="1" pageWidth="827" pageHeight="1169" background="none" math="0" shadow="0">
            <root>
                <mxCell id="0"/>
                <mxCell id="1" parent="0"/>
                <mxCell id="33" value="" style="group" parent="1" vertex="1" connectable="0">
                    <mxGeometry x="119" y="100" width="590" height="560" as="geometry"/>
                </mxCell>
                <mxCell id="19" value="" style="group" parent="33" vertex="1" connectable="0">
                    <mxGeometry y="300" width="331" height="260" as="geometry"/>
                </mxCell>
                <mxCell id="7" value="Emotional Exhaustion" style="ellipse;whiteSpace=wrap;html=1;aspect=fixed;" parent="19" vertex="1">
                    <mxGeometry y="180" width="80" height="80" as="geometry"/>
                </mxCell>
                <mxCell id="60" value="" style="group" parent="19" vertex="1" connectable="0">
                    <mxGeometry width="331" height="170" as="geometry"/>
                </mxCell>
                <mxCell id="5" value="Physical Fatigue" style="ellipse;whiteSpace=wrap;html=1;aspect=fixed;" parent="60" vertex="1">
                    <mxGeometry width="80" height="80" as="geometry"/>
                </mxCell>
                <mxCell id="6" value="Cognitive Weariness" style="ellipse;whiteSpace=wrap;html=1;aspect=fixed;" parent="60" vertex="1">
                    <mxGeometry y="90" width="80" height="80" as="geometry"/>
                </mxCell>
                <mxCell id="32" value="" style="group" parent="60" vertex="1" connectable="0">
                    <mxGeometry x="160" y="90" width="120" height="80" as="geometry"/>
                </mxCell>
                <mxCell id="9" value="Burnout" style="ellipse;whiteSpace=wrap;html=1;" parent="32" vertex="1">
                    <mxGeometry width="120" height="80" as="geometry"/>
                </mxCell>
                <mxCell id="16" value="" style="endArrow=classic;html=1;entryX=1;entryY=0.5;entryDx=0;entryDy=0;fillColor=#f5f5f5;strokeColor=#666666;" parent="32" target="5" edge="1">
                    <mxGeometry width="50" height="50" relative="1" as="geometry">
                        <mxPoint y="40" as="sourcePoint"/>
                        <mxPoint x="96.80934227475973" y="102.2345771766312" as="targetPoint"/>
                    </mxGeometry>
                </mxCell>
                <mxCell id="17" value="" style="endArrow=classic;html=1;entryX=1;entryY=0.5;entryDx=0;entryDy=0;exitX=0;exitY=0.5;exitDx=0;exitDy=0;fillColor=#f5f5f5;strokeColor=#666666;" parent="60" source="9" target="6" edge="1">
                    <mxGeometry width="50" height="50" relative="1" as="geometry">
                        <mxPoint x="170" y="200" as="sourcePoint"/>
                        <mxPoint x="90" y="110" as="targetPoint"/>
                    </mxGeometry>
                </mxCell>
                <mxCell id="18" value="" style="endArrow=classic;html=1;entryX=1;entryY=0.5;entryDx=0;entryDy=0;exitX=0;exitY=0.5;exitDx=0;exitDy=0;fillColor=#f5f5f5;strokeColor=#666666;" parent="60" source="9" target="7" edge="1">
                    <mxGeometry width="50" height="50" relative="1" as="geometry">
                        <mxPoint x="180" y="290" as="sourcePoint"/>
                        <mxPoint x="100" y="200" as="targetPoint"/>
                    </mxGeometry>
                </mxCell>
                <mxCell id="59" value="" style="endArrow=classic;html=1;exitX=0.5;exitY=1;exitDx=0;exitDy=0;fillColor=#f5f5f5;strokeColor=#666666;dashed=1;dashPattern=12 12;" parent="60" source="34" edge="1">
                    <mxGeometry width="50" height="50" relative="1" as="geometry">
                        <mxPoint x="271" y="40" as="sourcePoint"/>
                        <mxPoint x="391" y="-110" as="targetPoint"/>
                    </mxGeometry>
                </mxCell>
                <mxCell id="20" value="" style="group" parent="33" vertex="1" connectable="0">
                    <mxGeometry width="280" height="280" as="geometry"/>
                </mxCell>
                <mxCell id="2" value="Competency Thwarting" style="ellipse;whiteSpace=wrap;html=1;aspect=fixed;" parent="20" vertex="1">
                    <mxGeometry width="80" height="80" as="geometry"/>
                </mxCell>
                <mxCell id="3" value="Autonomy Thwarting" style="ellipse;whiteSpace=wrap;html=1;aspect=fixed;" parent="20" vertex="1">
                    <mxGeometry y="90" width="80" height="80" as="geometry"/>
                </mxCell>
                <mxCell id="4" value="Relatedness Thwarting" style="ellipse;whiteSpace=wrap;html=1;aspect=fixed;" parent="20" vertex="1">
                    <mxGeometry y="180" width="80" height="80" as="geometry"/>
                </mxCell>
                <mxCell id="8" value="Psychological Need Thwarting" style="ellipse;whiteSpace=wrap;html=1;" parent="20" vertex="1">
                    <mxGeometry x="160" y="90" width="120" height="80" as="geometry"/>
                </mxCell>
                <mxCell id="13" value="" style="endArrow=classic;html=1;entryX=1;entryY=0.5;entryDx=0;entryDy=0;fillColor=#f5f5f5;strokeColor=#666666;" parent="20" target="3" edge="1">
                    <mxGeometry width="50" height="50" relative="1" as="geometry">
                        <mxPoint x="160" y="130" as="sourcePoint"/>
                        <mxPoint x="210" y="80" as="targetPoint"/>
                    </mxGeometry>
                </mxCell>
                <mxCell id="14" value="" style="endArrow=classic;html=1;entryX=1;entryY=0.5;entryDx=0;entryDy=0;fillColor=#f5f5f5;strokeColor=#666666;" parent="20" target="4" edge="1">
                    <mxGeometry width="50" height="50" relative="1" as="geometry">
                        <mxPoint x="160" y="130" as="sourcePoint"/>
                        <mxPoint x="256.80934227475973" y="192.2345771766312" as="targetPoint"/>
                    </mxGeometry>
                </mxCell>
                <mxCell id="15" value="" style="endArrow=classic;html=1;entryX=1;entryY=0.5;entryDx=0;entryDy=0;fillColor=#f5f5f5;strokeColor=#666666;" parent="20" target="2" edge="1">
                    <mxGeometry width="50" height="50" relative="1" as="geometry">
                        <mxPoint x="160" y="130" as="sourcePoint"/>
                        <mxPoint x="256.80934227475973" y="192.2345771766312" as="targetPoint"/>
                    </mxGeometry>
                </mxCell>
                <mxCell id="29" value="Turnover Intention" style="ellipse;whiteSpace=wrap;html=1;" parent="33" vertex="1">
                    <mxGeometry x="470" y="230" width="120" height="80" as="geometry"/>
                </mxCell>
                <mxCell id="30" value="" style="endArrow=classic;html=1;fillColor=#f5f5f5;strokeColor=#666666;" parent="33" target="29" edge="1">
                    <mxGeometry width="50" height="50" relative="1" as="geometry">
                        <mxPoint x="280" y="130" as="sourcePoint"/>
                        <mxPoint x="330" y="80" as="targetPoint"/>
                    </mxGeometry>
                </mxCell>
                <mxCell id="31" value="" style="endArrow=classic;html=1;fillColor=#f5f5f5;strokeColor=#666666;" parent="33" target="29" edge="1">
                    <mxGeometry width="50" height="50" relative="1" as="geometry">
                        <mxPoint x="280" y="427" as="sourcePoint"/>
                        <mxPoint x="484.0577081126237" y="541.2723165430693" as="targetPoint"/>
                    </mxGeometry>
                </mxCell>
                <mxCell id="35" value="" style="endArrow=classic;html=1;fillColor=#f5f5f5;strokeColor=#666666;exitX=0.5;exitY=1;exitDx=0;exitDy=0;dashed=1;dashPattern=12 12;" parent="33" source="34" edge="1">
                    <mxGeometry width="50" height="50" relative="1" as="geometry">
                        <mxPoint x="461" y="150" as="sourcePoint"/>
                        <mxPoint x="401" y="350" as="targetPoint"/>
                    </mxGeometry>
                </mxCell>
                <mxCell id="62" value="Violation" style="ellipse;whiteSpace=wrap;html=1;aspect=fixed;" parent="33" vertex="1">
                    <mxGeometry x="280" y="10" width="80" height="80" as="geometry"/>
                </mxCell>
                <mxCell id="65" value="Job Satisfaction" style="ellipse;whiteSpace=wrap;html=1;" vertex="1" parent="33">
                    <mxGeometry x="411" y="500" width="120" height="80" as="geometry"/>
                </mxCell>
                <mxCell id="69" value="" style="endArrow=classic;html=1;exitX=0.5;exitY=0;exitDx=0;exitDy=0;fillColor=#f5f5f5;strokeColor=#666666;dashed=1;" edge="1" parent="33" source="65">
                    <mxGeometry width="50" height="50" relative="1" as="geometry">
                        <mxPoint x="401" y="230" as="sourcePoint"/>
                        <mxPoint x="401" y="350" as="targetPoint"/>
                    </mxGeometry>
                </mxCell>
                <mxCell id="61" value="Perceived Breach" style="ellipse;whiteSpace=wrap;html=1;aspect=fixed;" parent="1" vertex="1">
                    <mxGeometry x="400" y="10" width="80" height="80" as="geometry"/>
                </mxCell>
                <mxCell id="63" value="" style="endArrow=classic;html=1;fillColor=#f5f5f5;strokeColor=#666666;entryX=1;entryY=0.5;entryDx=0;entryDy=0;exitX=0;exitY=0.5;exitDx=0;exitDy=0;" parent="1" source="34" target="61" edge="1">
                    <mxGeometry width="50" height="50" relative="1" as="geometry">
                        <mxPoint x="390" y="370" as="sourcePoint"/>
                        <mxPoint x="360" y="340" as="targetPoint"/>
                    </mxGeometry>
                </mxCell>
                <mxCell id="34" value="Psychological Contract" style="ellipse;whiteSpace=wrap;html=1;" parent="1" vertex="1">
                    <mxGeometry x="510" y="60" width="120" height="80" as="geometry"/>
                </mxCell>
                <mxCell id="64" value="" style="endArrow=classic;html=1;fillColor=#f5f5f5;strokeColor=#666666;exitX=0;exitY=0.5;exitDx=0;exitDy=0;entryX=1;entryY=0.5;entryDx=0;entryDy=0;" parent="1" source="34" target="62" edge="1">
                    <mxGeometry width="50" height="50" relative="1" as="geometry">
                        <mxPoint x="389" y="400" as="sourcePoint"/>
                        <mxPoint x="359" y="370" as="targetPoint"/>
                    </mxGeometry>
                </mxCell>
                <mxCell id="66" value="" style="endArrow=classic;html=1;fillColor=#f5f5f5;strokeColor=#666666;dashed=1;" edge="1" parent="1">
                    <mxGeometry width="50" height="50" relative="1" as="geometry">
                        <mxPoint x="589" y="600" as="sourcePoint"/>
                        <mxPoint x="510" y="290" as="targetPoint"/>
                    </mxGeometry>
                </mxCell>
            </root>
        </mxGraphModel>
    </diagram>
</mxfile>